<svg height="512pt" viewBox="0 0 512 512" width="512pt" xmlns="http://www.w3.org/2000/svg"><path d="m467 121h-28.214844l-13.8125-83.398438c-3.628906-21.789062-22.296875-37.601562-44.386718-37.601562h-249.171876c-22.089843 0-40.757812 15.8125-44.390624 37.617188l-13.808594 83.382812h-28.214844c-24.8125 0-45 20.1875-45 45s20.1875 45 45 45h16v225c0 24.8125 20.1875 45 45 45s45-20.1875 45-45v-15h30v15c0 8.285156 6.714844 15 15 15h15v16c0 24.8125 20.1875 45 45 45s45-20.1875 45-45v-16h15c8.285156 0 15-6.714844 15-15v-15h30v15c0 24.8125 20.1875 45 45 45s45-20.1875 45-45c0-4.925781 0-220.179688 0-225h16c24.8125 0 45-20.1875 45-45s-20.1875-45-45-45zm-112.679688 2.519531c-6.890624-4.59375-16.207031-2.734375-20.800781 4.160157l-35.546875 53.320312h-83.945312l24.453125-36.679688c4.59375-6.894531 2.734375-16.207031-4.160157-20.800781-6.890624-4.59375-16.207031-2.734375-20.800781 4.160157l-35.546875 53.320312h-84.285156c1.757812-10.601562 12.972656-78.347656 14.90625-90h294.8125c1.929688 11.644531 13.144531 79.375 14.90625 90h-84.285156l24.453125-36.679688c4.59375-6.890624 2.734375-16.207031-4.160157-20.800781zm-222.90625-93.519531h249.171876c7.363281 0 13.585937 5.269531 14.792968 12.519531l3.0625 18.480469h-284.882812l3.058594-18.464844c1.210937-7.265625 7.433593-12.535156 14.796874-12.535156zm-101.414062 136c0-8.269531 6.730469-15 15-15h23.246094l-4.964844 30h-18.28125c-8.269531 0-15-6.730469-15-15zm91 270c0 8.269531-6.730469 15-15 15s-15-6.730469-15-15v-15h30zm150 31c0 8.269531-6.730469 15-15 15s-15-6.730469-15-15v-16h30zm30-46h-90v-15c0-24.8125 20.1875-45 45-45s45 20.1875 45 45zm105 30c-8.269531 0-15-6.730469-15-15v-15h30v15c0 8.269531-6.730469 15-15 15zm15-60h-91.507812c-6.96875-34.191406-37.273438-60-73.492188-60s-66.523438 25.808594-73.492188 60h-91.507812v-180h330zm46-210h-18.28125l-4.964844-30h23.246094c8.269531 0 15 6.730469 15 15s-6.730469 15-15 15zm0 0"/><path d="m166 241c-24.8125 0-45 20.1875-45 45s20.1875 45 45 45 45-20.1875 45-45-20.1875-45-45-45zm0 60c-8.269531 0-15-6.730469-15-15s6.730469-15 15-15 15 6.730469 15 15-6.730469 15-15 15zm0 0"/><path d="m301 286c0 24.8125 20.1875 45 45 45s45-20.1875 45-45-20.1875-45-45-45-45 20.1875-45 45zm45-15c8.269531 0 15 6.730469 15 15s-6.730469 15-15 15-15-6.730469-15-15 6.730469-15 15-15zm0 0"/></svg>